<?xml version="1.0" encoding="UTF-8" standalone="no"?><!DOCTYPE svg PUBLIC "-//W3C//DTD SVG 1.1//EN" "http://www.w3.org/Graphics/SVG/1.1/DTD/svg11.dtd"><svg width="100%" height="100%" viewBox="0 0 248 36" version="1.1" xmlns="http://www.w3.org/2000/svg" xmlns:xlink="http://www.w3.org/1999/xlink" xml:space="preserve" xmlns:serif="http://www.serif.com/" style="fill-rule:evenodd;clip-rule:evenodd;stroke-linejoin:round;stroke-miterlimit:1.41421;"><rect id="Artboard1" x="0" y="0" width="248" height="35.562" style="fill:none;"/><clipPath id="_clip1"><rect id="Artboard11" serif:id="Artboard1" x="0" y="0" width="248" height="35.562"/></clipPath><g clip-path="url(#_clip1)"><g><path d="M41.395,26.645c0.296,0.043 0.639,0.075 1.03,0.095c0.39,0.021 0.744,0.032 1.061,0.032c0.444,0 0.908,-0.042 1.394,-0.127c0.486,-0.084 0.939,-0.248 1.363,-0.491c0.422,-0.242 0.77,-0.58 1.045,-1.014c0.275,-0.432 0.412,-0.998 0.412,-1.695c0,-0.654 -0.106,-1.198 -0.317,-1.632c-0.211,-0.432 -0.512,-0.781 -0.903,-1.045c-0.391,-0.264 -0.855,-0.449 -1.394,-0.555c-0.538,-0.105 -1.135,-0.158 -1.79,-0.158l-1.901,0l0,6.59Zm1.394,-10.075c0.528,0 1.019,-0.048 1.474,-0.143c0.454,-0.095 0.849,-0.264 1.188,-0.506c0.337,-0.243 0.601,-0.571 0.792,-0.983c0.189,-0.412 0.285,-0.934 0.285,-1.568c0,-0.612 -0.112,-1.114 -0.333,-1.506c-0.222,-0.39 -0.507,-0.696 -0.855,-0.918c-0.349,-0.222 -0.74,-0.37 -1.173,-0.444c-0.433,-0.073 -0.86,-0.11 -1.283,-0.11c-0.592,0 -1.088,0.031 -1.489,0.094l0,6.084l1.394,0Zm-5.988,-9.252c0.676,-0.105 1.457,-0.19 2.344,-0.253c0.887,-0.063 1.996,-0.095 3.327,-0.095c1.162,0 2.26,0.095 3.295,0.285c1.035,0.19 1.938,0.512 2.71,0.966c0.77,0.455 1.378,1.062 1.821,1.822c0.444,0.761 0.666,1.711 0.666,2.852c0,0.675 -0.101,1.304 -0.302,1.885c-0.201,0.581 -0.47,1.088 -0.807,1.52c-0.339,0.433 -0.719,0.793 -1.141,1.078c-0.423,0.285 -0.856,0.46 -1.299,0.523c0.485,0.063 1.024,0.211 1.616,0.443c0.591,0.233 1.14,0.576 1.647,1.029c0.507,0.455 0.93,1.042 1.268,1.759c0.337,0.719 0.506,1.584 0.506,2.599c0,1.373 -0.258,2.497 -0.776,3.374c-0.518,0.877 -1.215,1.568 -2.091,2.075c-0.877,0.507 -1.891,0.855 -3.041,1.045c-1.152,0.191 -2.361,0.285 -3.628,0.285c-0.972,0 -1.933,-0.027 -2.884,-0.079c-0.95,-0.053 -2.027,-0.153 -3.231,-0.3l0,-22.813Z" style="fill:#343535;fill-rule:nonzero;"/><path d="M65.918,20.182c-0.042,-1.014 -0.322,-1.833 -0.84,-2.456c-0.517,-0.623 -1.24,-0.934 -2.17,-0.934c-1.057,0 -1.858,0.295 -2.408,0.887c-0.549,0.591 -0.877,1.426 -0.982,2.503l6.4,0Zm-6.432,3.137c0.084,1.267 0.528,2.186 1.331,2.756c0.803,0.57 1.858,0.856 3.168,0.856c0.718,0 1.452,-0.069 2.202,-0.207c0.75,-0.137 1.463,-0.332 2.139,-0.586c0.232,0.423 0.433,0.93 0.602,1.521c0.169,0.592 0.264,1.225 0.285,1.901c-1.647,0.634 -3.506,0.951 -5.576,0.951c-1.521,0 -2.825,-0.212 -3.913,-0.634c-1.088,-0.423 -1.975,-1.009 -2.661,-1.759c-0.687,-0.749 -1.194,-1.641 -1.521,-2.677c-0.329,-1.034 -0.492,-2.165 -0.492,-3.39c0,-1.204 0.17,-2.333 0.507,-3.39c0.338,-1.056 0.84,-1.975 1.506,-2.757c0.664,-0.781 1.488,-1.399 2.471,-1.853c0.982,-0.454 2.128,-0.681 3.437,-0.681c1.141,0 2.155,0.201 3.042,0.602c0.887,0.401 1.642,0.95 2.265,1.647c0.623,0.698 1.093,1.527 1.41,2.487c0.317,0.962 0.476,1.991 0.476,3.089c0,0.402 -0.016,0.798 -0.048,1.189c-0.031,0.391 -0.069,0.702 -0.111,0.935l-10.519,0Z" style="fill:#343535;fill-rule:nonzero;"/><path d="M76.88,23.002c-1.183,-0.338 -2.107,-0.84 -2.772,-1.505c-0.665,-0.666 -0.998,-1.664 -0.998,-2.994c0,-1.605 0.575,-2.862 1.727,-3.771c1.151,-0.907 2.719,-1.362 4.705,-1.362c0.824,0 1.636,0.074 2.439,0.222c0.803,0.148 1.616,0.37 2.44,0.665c-0.043,0.549 -0.148,1.12 -0.317,1.711c-0.169,0.591 -0.37,1.109 -0.602,1.552c-0.507,-0.211 -1.066,-0.395 -1.679,-0.554c-0.613,-0.158 -1.257,-0.238 -1.933,-0.238c-0.718,0 -1.278,0.111 -1.679,0.333c-0.401,0.221 -0.602,0.576 -0.602,1.061c0,0.465 0.142,0.792 0.428,0.983c0.285,0.189 0.691,0.369 1.22,0.538l1.805,0.539c0.592,0.169 1.125,0.375 1.601,0.618c0.475,0.242 0.882,0.544 1.219,0.902c0.338,0.36 0.602,0.804 0.792,1.331c0.191,0.528 0.285,1.172 0.285,1.933c0,0.782 -0.163,1.511 -0.491,2.186c-0.327,0.676 -0.802,1.262 -1.425,1.759c-0.623,0.496 -1.379,0.886 -2.266,1.172c-0.887,0.285 -1.89,0.428 -3.01,0.428c-0.506,0 -0.972,-0.016 -1.394,-0.048c-0.422,-0.032 -0.829,-0.084 -1.219,-0.158c-0.391,-0.074 -0.777,-0.164 -1.157,-0.27c-0.38,-0.105 -0.792,-0.242 -1.236,-0.411c0.043,-0.571 0.143,-1.146 0.301,-1.728c0.159,-0.58 0.365,-1.145 0.619,-1.695c0.696,0.276 1.356,0.481 1.98,0.619c0.622,0.137 1.271,0.205 1.948,0.205c0.295,0 0.618,-0.026 0.966,-0.079c0.349,-0.052 0.671,-0.147 0.967,-0.285c0.295,-0.137 0.544,-0.317 0.744,-0.539c0.201,-0.222 0.301,-0.511 0.301,-0.871c0,-0.507 -0.153,-0.871 -0.459,-1.093c-0.307,-0.222 -0.734,-0.417 -1.283,-0.586l-1.965,-0.57Z" style="fill:#343535;fill-rule:nonzero;"/><path d="M88.73,17.172l-2.06,0l-0.158,-0.634l5.924,-7.572l0.729,0l0,4.784l3.834,0c0.064,0.317 0.105,0.602 0.127,0.855c0.02,0.254 0.031,0.518 0.031,0.792c0,0.296 -0.011,0.581 -0.031,0.856c-0.022,0.275 -0.063,0.581 -0.127,0.919l-3.834,0l0,6.432c0,0.654 0.053,1.183 0.159,1.583c0.105,0.402 0.258,0.719 0.459,0.952c0.2,0.232 0.449,0.39 0.745,0.475c0.295,0.084 0.644,0.126 1.045,0.126c0.317,0 0.628,-0.026 0.935,-0.079c0.306,-0.053 0.575,-0.1 0.808,-0.143c0.147,0.402 0.253,0.819 0.317,1.252c0.063,0.433 0.094,0.819 0.094,1.157c0,0.232 -0.004,0.427 -0.015,0.586c-0.011,0.158 -0.027,0.312 -0.048,0.459c-0.972,0.232 -1.975,0.349 -3.01,0.349c-1.922,0 -3.39,-0.449 -4.404,-1.347c-1.013,-0.898 -1.52,-2.36 -1.52,-4.388l0,-7.414Z" style="fill:#343535;fill-rule:nonzero;"/><path d="M101.403,7.35c0.127,-0.021 0.29,-0.037 0.491,-0.048c0.201,-0.01 0.406,-0.016 0.618,-0.016c0.19,0 0.38,0.006 0.57,0.016c0.19,0.011 0.359,0.027 0.507,0.048l0,20.784l9.727,0c0.02,0.127 0.037,0.291 0.048,0.492c0.01,0.2 0.016,0.375 0.016,0.522c0,0.169 -0.006,0.344 -0.016,0.523c-0.011,0.18 -0.028,0.333 -0.048,0.459l-11.913,0l0,-22.78Z" style="fill:#343535;fill-rule:nonzero;"/><path d="M122.979,11.342c-0.38,0.064 -0.813,0.095 -1.299,0.095c-0.317,0 -0.665,-0.031 -1.045,-0.095l3.707,-4.119c0.231,-0.042 0.469,-0.063 0.713,-0.063l0.712,0c0.254,0 0.507,0.005 0.761,0.015c0.253,0.012 0.496,0.027 0.728,0.048l-4.277,4.119Zm4.594,9.284c0,-0.656 -0.084,-1.3 -0.253,-1.933c-0.17,-0.634 -0.433,-1.188 -0.792,-1.664c-0.36,-0.475 -0.824,-0.86 -1.395,-1.156c-0.569,-0.296 -1.256,-0.444 -2.059,-0.444c-1.479,0 -2.63,0.455 -3.453,1.363c-0.824,0.908 -1.32,2.186 -1.49,3.834l9.442,0Zm-9.505,1.742c0,2.155 0.496,3.739 1.489,4.752c0.993,1.015 2.482,1.521 4.468,1.521c0.802,0 1.547,-0.068 2.233,-0.205c0.686,-0.138 1.357,-0.323 2.012,-0.555c0.106,0.232 0.191,0.518 0.254,0.855c0.063,0.339 0.105,0.645 0.126,0.919c-0.612,0.275 -1.33,0.486 -2.154,0.634c-0.824,0.147 -1.721,0.221 -2.693,0.221c-1.394,0 -2.593,-0.206 -3.596,-0.617c-1.004,-0.412 -1.828,-0.988 -2.472,-1.727c-0.644,-0.739 -1.119,-1.621 -1.425,-2.646c-0.306,-1.024 -0.46,-2.149 -0.46,-3.374c0,-1.183 0.143,-2.291 0.428,-3.327c0.285,-1.034 0.718,-1.943 1.299,-2.724c0.58,-0.781 1.325,-1.394 2.233,-1.838c0.909,-0.444 1.997,-0.665 3.264,-0.665c1.056,0 1.996,0.179 2.82,0.538c0.823,0.36 1.515,0.861 2.075,1.505c0.559,0.645 0.983,1.416 1.267,2.313c0.285,0.898 0.428,1.875 0.428,2.931c0,0.19 -0.005,0.433 -0.016,0.728c-0.011,0.296 -0.026,0.55 -0.047,0.761l-11.533,0Z" style="fill:#343535;fill-rule:nonzero;"/><path d="M137.68,21.798l5.798,-7.826c0.338,-0.064 0.708,-0.096 1.109,-0.096c0.464,0 0.908,0.032 1.331,0.096l-5.767,7.604l6.812,8.555c-0.38,0.063 -0.76,0.094 -1.14,0.094c-0.465,0 -0.919,-0.031 -1.363,-0.094l-6.78,-8.333Zm-3.422,-14.955c0.127,-0.02 0.301,-0.036 0.523,-0.047c0.222,-0.011 0.396,-0.016 0.523,-0.016c0.105,0 0.274,0.005 0.507,0.016c0.232,0.011 0.411,0.027 0.538,0.047l0,23.288c-0.127,0.02 -0.306,0.036 -0.538,0.047c-0.233,0.01 -0.402,0.016 -0.507,0.016c-0.127,0 -0.301,-0.006 -0.523,-0.016c-0.222,-0.011 -0.396,-0.027 -0.523,-0.047l0,-23.288Z" style="fill:#343535;fill-rule:nonzero;"/><path d="M154.852,11.342c-0.38,0.064 -0.813,0.095 -1.299,0.095c-0.317,0 -0.665,-0.031 -1.045,-0.095l3.707,-4.119c0.232,-0.042 0.469,-0.063 0.713,-0.063l0.713,0c0.253,0 0.507,0.005 0.76,0.015c0.254,0.012 0.496,0.027 0.728,0.048l-4.277,4.119Zm3.897,10.931c-0.359,-0.042 -0.808,-0.089 -1.346,-0.143c-0.539,-0.052 -1.051,-0.079 -1.537,-0.079c-1.584,0 -2.809,0.296 -3.675,0.887c-0.867,0.592 -1.299,1.437 -1.299,2.535c0,0.697 0.131,1.257 0.396,1.679c0.264,0.423 0.607,0.745 1.03,0.967c0.422,0.221 0.887,0.369 1.394,0.443c0.507,0.074 1.014,0.111 1.52,0.111c0.655,0 1.268,-0.032 1.838,-0.095c0.571,-0.064 1.13,-0.147 1.679,-0.254l0,-6.051Zm0,-2.82c0,-1.394 -0.327,-2.413 -0.981,-3.057c-0.656,-0.645 -1.628,-0.967 -2.916,-0.967c-0.845,0 -1.616,0.058 -2.312,0.175c-0.698,0.116 -1.32,0.258 -1.87,0.427c-0.106,-0.19 -0.195,-0.464 -0.269,-0.824c-0.074,-0.359 -0.111,-0.696 -0.111,-1.013c0.549,-0.169 1.225,-0.312 2.028,-0.428c0.802,-0.116 1.626,-0.174 2.471,-0.174c2.048,0 3.569,0.449 4.562,1.346c0.993,0.898 1.49,2.308 1.49,4.23l0,10.677c-0.74,0.148 -1.638,0.296 -2.693,0.444c-1.057,0.147 -2.059,0.221 -3.01,0.221c-1.965,0 -3.512,-0.39 -4.642,-1.172c-1.13,-0.781 -1.696,-2.048 -1.696,-3.802c0,-0.844 0.164,-1.6 0.492,-2.266c0.327,-0.664 0.781,-1.224 1.362,-1.679c0.581,-0.453 1.278,-0.796 2.092,-1.029c0.813,-0.233 1.705,-0.349 2.677,-0.349c0.76,0 1.414,0.027 1.964,0.08c0.549,0.052 1.003,0.1 1.362,0.142l0,-0.982Z" style="fill:#343535;fill-rule:nonzero;"/><path d="M166.1,13.972c0.168,-0.021 0.332,-0.037 0.491,-0.048c0.158,-0.01 0.311,-0.016 0.459,-0.016c0.169,0 0.328,0.006 0.475,0.016c0.148,0.011 0.307,0.027 0.475,0.048c0.043,0.38 0.074,0.829 0.096,1.346c0.021,0.518 0.031,0.988 0.031,1.41c0.423,-0.781 1.014,-1.442 1.774,-1.98c0.761,-0.539 1.764,-0.808 3.011,-0.808l0.332,0c0.116,0 0.248,0.011 0.396,0.032c0.064,0.359 0.095,0.697 0.095,1.013c0,0.339 -0.031,0.666 -0.095,0.983c-0.169,-0.021 -0.301,-0.032 -0.396,-0.032l-0.301,0c-1.436,0 -2.588,0.455 -3.453,1.362c-0.866,0.909 -1.299,2.419 -1.299,4.532l0,8.301c-0.127,0.021 -0.301,0.036 -0.523,0.047c-0.222,0.01 -0.396,0.016 -0.523,0.016c-0.106,0 -0.274,-0.006 -0.507,-0.016c-0.232,-0.011 -0.411,-0.026 -0.538,-0.047l0,-16.159Z" style="fill:#343535;fill-rule:nonzero;"/><path d="M177.189,13.972c0.168,-0.021 0.332,-0.037 0.491,-0.048c0.159,-0.01 0.312,-0.016 0.46,-0.016c0.168,0 0.327,0.006 0.474,0.016c0.148,0.011 0.307,0.027 0.476,0.048c0.042,0.38 0.074,0.855 0.095,1.426c0.021,0.57 0.031,1.067 0.031,1.489c0.211,-0.38 0.486,-0.766 0.824,-1.156c0.338,-0.391 0.733,-0.746 1.189,-1.062c0.453,-0.317 0.976,-0.575 1.568,-0.777c0.591,-0.2 1.236,-0.301 1.932,-0.301c1.859,0 3.211,0.555 4.056,1.664c0.844,1.109 1.267,2.667 1.267,4.673l0,10.203c-0.127,0.021 -0.301,0.036 -0.522,0.047c-0.222,0.01 -0.397,0.016 -0.523,0.016c-0.107,0 -0.275,-0.006 -0.507,-0.016c-0.233,-0.011 -0.412,-0.026 -0.539,-0.047l0,-9.569c0,-1.795 -0.28,-3.084 -0.839,-3.865c-0.561,-0.782 -1.4,-1.173 -2.519,-1.173c-0.74,0 -1.437,0.148 -2.092,0.444c-0.654,0.296 -1.219,0.723 -1.694,1.283c-0.476,0.56 -0.851,1.252 -1.125,2.075c-0.275,0.824 -0.412,1.764 -0.412,2.82l0,7.985c-0.127,0.021 -0.301,0.036 -0.523,0.047c-0.222,0.01 -0.396,0.016 -0.523,0.016c-0.105,0 -0.274,-0.006 -0.507,-0.016c-0.232,-0.011 -0.411,-0.026 -0.538,-0.047l0,-16.159Z" style="fill:#343535;fill-rule:nonzero;"/><path d="M204.215,22.273c-0.36,-0.042 -0.808,-0.089 -1.347,-0.143c-0.538,-0.052 -1.051,-0.079 -1.537,-0.079c-1.584,0 -2.809,0.297 -3.675,0.887c-0.866,0.592 -1.299,1.437 -1.299,2.535c0,0.697 0.132,1.257 0.396,1.679c0.264,0.423 0.607,0.745 1.03,0.967c0.423,0.221 0.887,0.369 1.395,0.443c0.506,0.074 1.013,0.111 1.52,0.111c0.654,0 1.267,-0.032 1.838,-0.095c0.57,-0.063 1.129,-0.148 1.679,-0.254l0,-6.051Zm0,-2.82c0,-1.394 -0.328,-2.413 -0.982,-3.057c-0.656,-0.645 -1.628,-0.967 -2.915,-0.967c-0.846,0 -1.616,0.059 -2.313,0.175c-0.697,0.116 -1.321,0.259 -1.869,0.427c-0.107,-0.19 -0.196,-0.464 -0.269,-0.824c-0.076,-0.359 -0.112,-0.696 -0.112,-1.013c0.549,-0.169 1.225,-0.312 2.028,-0.428c0.802,-0.116 1.626,-0.174 2.471,-0.174c2.049,0 3.569,0.449 4.563,1.346c0.992,0.898 1.489,2.308 1.489,4.23l0,10.677c-0.74,0.149 -1.637,0.296 -2.693,0.443c-1.057,0.148 -2.06,0.222 -3.01,0.222c-1.964,0 -3.512,-0.39 -4.642,-1.172c-1.13,-0.781 -1.695,-2.048 -1.695,-3.802c0,-0.844 0.164,-1.6 0.491,-2.265c0.327,-0.665 0.781,-1.225 1.363,-1.679c0.58,-0.454 1.277,-0.798 2.091,-1.03c0.813,-0.232 1.705,-0.349 2.677,-0.349c0.761,0 1.415,0.027 1.964,0.08c0.549,0.053 1.003,0.1 1.363,0.142l0,-0.982Z" style="fill:#343535;fill-rule:nonzero;"/><path d="M211.026,30.13c-0.126,-0.781 -0.19,-1.552 -0.19,-2.312c0,-0.761 0.064,-1.542 0.19,-2.345c0.781,-0.127 1.553,-0.19 2.313,-0.19c0.76,0 1.542,0.063 2.345,0.19c0.126,0.803 0.19,1.573 0.19,2.313c0,0.782 -0.064,1.563 -0.19,2.344c-0.803,0.127 -1.574,0.191 -2.313,0.191c-0.782,0 -1.564,-0.064 -2.345,-0.191" style="fill:#343535;fill-rule:nonzero;"/><path d="M231.145,26.265c0.253,0.423 0.464,0.914 0.634,1.473c0.168,0.56 0.253,1.22 0.253,1.981c-0.846,0.338 -1.638,0.554 -2.377,0.649c-0.739,0.095 -1.51,0.143 -2.312,0.143c-1.374,0 -2.566,-0.218 -3.581,-0.65c-1.014,-0.432 -1.853,-1.029 -2.518,-1.79c-0.665,-0.761 -1.168,-1.664 -1.505,-2.709c-0.338,-1.046 -0.507,-2.181 -0.507,-3.406c0,-1.204 0.163,-2.324 0.491,-3.358c0.327,-1.035 0.824,-1.943 1.489,-2.725c0.666,-0.782 1.494,-1.395 2.487,-1.838c0.993,-0.443 2.144,-0.666 3.454,-0.666c0.464,0 0.892,0.012 1.283,0.032c0.391,0.022 0.765,0.064 1.125,0.128c0.359,0.063 0.718,0.147 1.077,0.253c0.359,0.106 0.76,0.243 1.204,0.411c0,0.487 -0.063,1.03 -0.19,1.632c-0.127,0.602 -0.328,1.178 -0.602,1.727c-0.634,-0.211 -1.188,-0.353 -1.664,-0.427c-0.474,-0.074 -1.019,-0.112 -1.631,-0.112c-1.31,0 -2.298,0.428 -2.963,1.284c-0.666,0.855 -0.998,2.075 -0.998,3.659c0,1.711 0.359,2.958 1.077,3.739c0.719,0.782 1.69,1.172 2.916,1.172c0.316,0 0.607,-0.005 0.871,-0.016c0.263,-0.01 0.522,-0.037 0.776,-0.079c0.253,-0.042 0.512,-0.106 0.776,-0.19c0.264,-0.085 0.575,-0.19 0.935,-0.317" style="fill:#343535;fill-rule:nonzero;"/><path d="M233.838,29.75l7.382,-12.547l-6.273,0c-0.064,-0.316 -0.106,-0.622 -0.128,-0.918c-0.02,-0.296 -0.031,-0.591 -0.031,-0.887c0,-0.275 0.011,-0.544 0.031,-0.808c0.022,-0.264 0.064,-0.544 0.128,-0.84l12.895,0l0.158,0.38l-7.508,12.547l6.97,0c0.063,0.317 0.105,0.623 0.126,0.919c0.021,0.296 0.032,0.591 0.032,0.887c0,0.274 -0.011,0.544 -0.032,0.808c-0.021,0.264 -0.063,0.544 -0.126,0.84l-13.371,0l-0.253,-0.381Z" style="fill:#343535;fill-rule:nonzero;"/><path d="M27.269,34.045c0,0.837 -5.675,1.517 -12.676,1.517c-7,0 -12.675,-0.68 -12.675,-1.517c0,-0.838 5.675,-1.517 12.675,-1.517c7.001,0 12.676,0.679 12.676,1.517" style="fill:#cececf;"/><path d="M14.792,33.924c-0.432,-0.129 -7.403,-2.254 -11.068,-6.319c-3.783,-4.197 -3.724,-10.108 -3.724,-14.423c0,-4.315 0.236,-7.803 3.901,-9.044c3.666,-1.242 10.912,-4.138 10.912,-4.138l0.319,0.127c1.437,0.571 7.386,2.925 10.594,4.011c3.665,1.241 3.901,4.729 3.901,9.044c0,4.315 0.059,10.226 -3.724,14.423c-3.783,4.196 -11.09,6.325 -11.09,6.325l-0.021,-0.006Z" style="fill:#0d579d;"/><path d="M14.813,0c0,0 -7.246,2.896 -10.912,4.138c-3.665,1.241 -3.901,4.729 -3.901,9.044c0,4.315 -0.059,10.226 3.724,14.423c3.783,4.196 11.089,6.325 11.089,6.325l0,-33.93Z" style="fill:#2262ae;fill-rule:nonzero;"/><path d="M23.253,13.433l-5.059,0l0,-5.059l-6.986,0l0,5.059l-5.058,0l0,6.986l5.058,0l0,5.059l6.986,0l0,-5.059l5.059,0l0,-6.986Z" style="fill:#fff;"/></g></g></svg>