<?xml version="1.0" encoding="UTF-8" standalone="no"?><!DOCTYPE svg PUBLIC "-//W3C//DTD SVG 1.1//EN" "http://www.w3.org/Graphics/SVG/1.1/DTD/svg11.dtd"><svg width="100%" height="100%" viewBox="0 0 246 49" version="1.1" xmlns="http://www.w3.org/2000/svg" xmlns:xlink="http://www.w3.org/1999/xlink" xml:space="preserve" xmlns:serif="http://www.serif.com/" style="fill-rule:evenodd;clip-rule:evenodd;stroke-linejoin:round;stroke-miterlimit:1.41421;"><rect id="Artboard1" x="0" y="0" width="246" height="49" style="fill:none;"/><clipPath id="_clip1"><rect x="0" y="0" width="246" height="49"/></clipPath><g clip-path="url(#_clip1)"><g id="Camada-1" serif:id="Camada 1"><path id="path552" d="M1.14,9.642c-0.628,0 -1.14,0.509 -1.14,1.135c0.574,16.299 13.478,29.468 29.71,30.542c0.711,0.048 1.426,0.018 2.148,0.018c2.308,0 4.703,-0.405 6.87,-0.88c7.01,-1.533 12.202,-7.73 12.202,-15.221c0,-0.518 -0.026,-1.027 -0.075,-1.529c-0.091,-0.935 -0.266,-1.846 -0.515,-2.722c-1.856,-6.545 -7.898,-11.343 -15.066,-11.343c-7.167,0 -13.208,4.798 -15.067,11.343c1.284,4.515 4.558,8.196 8.819,10.045c-1.423,-1.521 -2.293,-3.557 -2.293,-5.794c0,-4.698 3.824,-8.506 8.541,-8.506c4.716,0 8.54,3.808 8.54,8.506c0,2.237 -0.87,4.273 -2.291,5.794c-1.56,1.663 -3.783,2.708 -6.249,2.708c-6.936,0 -12.908,-4.118 -15.582,-10.031c-0.394,-0.873 -0.718,-1.784 -0.962,-2.726c-0.35,-1.359 -0.536,-2.785 -0.536,-4.251c0,-2.044 0.363,-4.003 1.025,-5.819c0.031,-0.083 0.064,-0.165 0.095,-0.248c0.012,-0.056 0.018,-0.113 0.018,-0.172c0,-0.468 -0.383,-0.849 -0.853,-0.849l-17.336,0" style="fill:#ffcd33;"/><path id="path556" d="M58.654,10.501c0.533,1.987 0.817,4.075 0.817,6.229c0,7.286 -3.249,13.818 -8.38,18.238c-1.284,0.966 -2.378,1.925 -4.52,3.058c3.884,-3.652 5.782,-7.931 5.782,-12.79c0,-1.47 -0.185,-2.896 -0.536,-4.255c0.351,-1.357 0.536,-2.783 0.536,-4.251c0,-2.095 -0.379,-4.1 -1.074,-5.954c-0.031,-0.088 -0.048,-0.183 -0.048,-0.283c0,-0.469 0.385,-0.85 0.856,-0.85l5.465,0c0.523,0 0.969,0.379 1.102,0.858" style="fill:#ffcd33;"/><path id="path560" d="M68.739,26.785c0,7.377 4.351,11.532 11.173,11.532c3.379,0 5.815,-0.94 7.537,-2.208l0,-4.126l-2.209,0c-1.104,1.073 -2.5,1.981 -4.937,1.981c-3.413,0 -5.197,-2.206 -5.197,-7.405c0,-4.807 2.046,-7.116 5.488,-7.116c2.046,0 3.411,0.716 4.255,1.497l2.404,0l0,-4.322c-1.689,-0.974 -3.635,-1.623 -6.821,-1.623c-7.017,0 -11.693,4.353 -11.693,11.79m15.754,-15.89l-2.988,3.251l-3.931,0l-2.859,-3.251l0,-1.235l3.15,0l1.82,1.235l1.786,-1.235l3.022,0l0,1.235" style="fill:#1f357a;fill-rule:nonzero;"/><path id="path564" d="M94.33,30.75c0.293,2.892 1.655,3.637 4.027,3.637c1.918,0 3.347,-0.551 4.353,-1.265l1.818,0l0,3.475c-1.493,0.845 -3.508,1.687 -7.079,1.687c-5.946,0 -9.032,-3.311 -9.032,-8.703c0,-5.489 3.573,-8.935 8.739,-8.935c5.328,0 8.056,2.828 8.056,8.61c0,0.682 -0.064,1.298 -0.064,1.494l-10.818,0Zm0.032,-3.054l5.327,0c-0.096,-2.631 -0.974,-3.473 -2.533,-3.473c-1.331,0 -2.469,0.68 -2.794,3.473" style="fill:#1f357a;fill-rule:nonzero;"/><path id="path568" d="M106.695,36.889l0,-3.831l1.982,0c0.682,0.613 2.111,1.264 3.962,1.264c1.56,0 2.533,-0.357 2.533,-1.231c0,-0.911 -0.584,-1.207 -2.957,-1.528c-3.635,-0.456 -5.684,-1.723 -5.684,-5.296c0,-3.735 2.926,-5.587 7.213,-5.587c2.728,0 4.319,0.455 5.783,1.135l0,3.771l-1.851,0c-0.78,-0.521 -2.049,-1.04 -3.77,-1.04c-1.625,0 -2.242,0.421 -2.242,1.233c0,0.716 0.748,1.073 2.924,1.331c3.997,0.488 5.912,1.69 5.912,5.331c0,3.637 -2.404,5.812 -7.632,5.812c-2.991,0 -4.778,-0.648 -6.173,-1.364" style="fill:#1f357a;fill-rule:nonzero;"/><path id="path572" d="M127.917,27.274l5.328,-6.368l4.873,0l0,1.4l-4.711,5.355l5.362,8.968l0,1.398l-5.491,0l-3.963,-6.662l-1.398,1.529l0,5.133l-5.847,0l0,-22.74l3.705,0c1.787,0 2.142,0.455 2.142,3.053l0,8.934" style="fill:#1f357a;fill-rule:nonzero;"/><path id="path576" d="M149.516,36.4c-1.202,1.335 -2.793,1.853 -4.903,1.853c-3.022,0 -5.424,-1.72 -5.424,-5.1c0,-3.606 2.759,-5.326 6.723,-5.326c1.3,0 2.307,0.129 3.28,0.325l0,-1.171c0,-1.491 -0.778,-2.175 -2.891,-2.175c-1.688,0 -3.084,0.484 -4.06,1.135l-1.755,0l0,-3.931c1.593,-0.68 3.898,-1.362 6.955,-1.362c5.095,0 7.597,1.689 7.597,5.91l0,11.468l-3.184,0c-1.362,0 -2.013,-0.488 -2.338,-1.626m-0.324,-5.519c-0.585,-0.101 -1.267,-0.165 -1.916,-0.165c-1.559,0 -2.533,0.617 -2.533,2.046c0,1.462 0.909,2.08 2.176,2.08c0.877,0 1.655,-0.422 2.273,-0.942l0,-3.019Zm-3.475,-11.079l0,-1.072l1.071,-3.542l5.621,0l0,1.398l-3.282,3.216l-3.41,0" style="fill:#1f357a;fill-rule:nonzero;"/><path id="path580" d="M170.974,36.662l0,6.626l-5.848,0l0,-22.382l4.064,0c0.878,0 1.396,0.326 1.627,1.851c1.262,-1.2 2.92,-2.109 5.257,-2.109c3.25,0 6.469,2.109 6.469,8.349c0,6.528 -3.576,8.867 -7.375,8.867c-1.852,0 -3.184,-0.424 -4.194,-1.202m0,-11.11l0,7.861c0.656,0.453 1.398,0.685 2.373,0.685c1.787,0 3.282,-0.814 3.282,-4.582c0,-3.673 -1.43,-4.513 -3.184,-4.513c-0.713,0 -1.688,0.224 -2.471,0.549" style="fill:#1f357a;fill-rule:nonzero;"/><path id="path584" d="M183.834,29.547c0,-5.488 3.964,-8.901 9.131,-8.901c5.13,0 9.092,3.413 9.092,8.901c0,5.458 -3.962,8.737 -9.092,8.737c-5.167,0 -9.131,-3.279 -9.131,-8.737m12.313,0.065c0,-3.411 -1.3,-4.969 -3.182,-4.969c-1.918,0 -3.218,1.558 -3.218,4.969c0,3.379 1.3,4.842 3.218,4.842c1.882,0 3.182,-1.463 3.182,-4.842" style="fill:#1f357a;fill-rule:nonzero;"/><path id="path588" d="M203.288,36.889l0,-3.831l1.981,0c0.683,0.613 2.113,1.264 3.964,1.264c1.555,0 2.531,-0.357 2.531,-1.231c0,-0.911 -0.58,-1.207 -2.955,-1.528c-3.64,-0.456 -5.682,-1.723 -5.682,-5.296c0,-3.735 2.923,-5.587 7.209,-5.587c2.731,0 4.321,0.455 5.783,1.135l0,3.771l-1.853,0c-0.78,-0.521 -2.046,-1.04 -3.768,-1.04c-1.627,0 -2.238,0.421 -2.238,1.233c0,0.716 0.74,1.073 2.924,1.331c3.993,0.488 5.909,1.69 5.909,5.331c0,3.637 -2.403,5.812 -7.635,5.812c-2.987,0 -4.775,-0.648 -6.17,-1.364m11.825,-20.465l-2.989,3.38l-3.935,0l-2.855,-3.38l0,-1.236l3.153,0l1.817,1.367l1.785,-1.367l3.024,0l0,1.236" style="fill:#1f357a;fill-rule:nonzero;"/><path id="path592" d="M217.865,20.906l1.853,0l0,-4.351l5.848,0l0,4.351l3.185,0l0,3.771l-3.185,0l0,7.794c0,1.529 0.583,2.016 2.112,2.016l1.135,0l0,3.377c-0.778,0.227 -1.879,0.454 -3.347,0.454c-3.506,0 -5.748,-1.232 -5.748,-4.969l0,-8.672l-1.853,0l0,-3.771" style="fill:#1f357a;fill-rule:nonzero;"/><path id="path596" d="M240.313,36.4c-1.206,1.335 -2.795,1.853 -4.91,1.853c-3.015,0 -5.422,-1.72 -5.422,-5.1c0,-3.606 2.762,-5.326 6.724,-5.326c1.297,0 2.306,0.129 3.281,0.325l0,-1.171c0,-1.491 -0.781,-2.175 -2.892,-2.175c-1.691,0 -3.085,0.484 -4.062,1.135l-1.751,0l0,-3.931c1.591,-0.68 3.897,-1.362 6.952,-1.362c5.1,0 7.6,1.689 7.6,5.91l0,11.468l-3.182,0c-1.365,0 -2.016,-0.488 -2.338,-1.626m-0.327,-2.5l0,-3.019c-0.583,-0.101 -1.266,-0.165 -1.917,-0.165c-1.558,0 -2.531,0.617 -2.531,2.046c0,1.462 0.909,2.08 2.174,2.08c0.879,0 1.657,-0.422 2.274,-0.942" style="fill:#1f357a;fill-rule:nonzero;"/></g></g></svg>